# Exported from ProBuilder
# http://www.procore3d.com/probuilder
# 6/21/2017 8:21:16 PM

mtllib ./2ndfishy.mtl
o 2ndfishy

g Cube
v -2.166289 -0.2324609 -2.042051
v -2.122611 0.336298 -2.574034
v -2.089935 0.2946633 -1.472217
v -2.046257 0.8634222 -2.0042
v -2.122611 0.336298 -2.574034
v -2.060682 0.3295871 -2.576124
v -2.046257 0.8634222 -2.0042
v -1.984328 0.8567113 -2.00629
v -2.060682 0.3295871 -2.576124
v -2.10436 -0.2391718 -2.044141
v -1.984328 0.8567113 -2.00629
v -2.028006 0.2879523 -1.474308
v -2.10436 -0.2391718 -2.044141
v -2.166289 -0.2324609 -2.042051
v -2.028006 0.2879523 -1.474308
v -2.089935 0.2946633 -1.472217
v -2.089935 0.2946633 -1.472217
v -2.046257 0.8634222 -2.0042
v -2.028006 0.2879523 -1.474308
v -1.984328 0.8567113 -2.00629
v -2.10436 -0.2391718 -2.044141
v -2.060682 0.3295871 -2.576124
v -2.166289 -0.2324609 -2.042051
v -2.122611 0.336298 -2.574034

vn -0.7750241 0.08398498 0.02615814
vn -0.7750241 0.08398498 0.02615814
vn -0.7750241 0.08398498 0.02615814
vn -0.7750241 0.08398498 0.02615814
vn 0.04367804 0.5687589 -0.5319827
vn 0.04367804 0.5687589 -0.5319827
vn 0.04367804 0.5687589 -0.5319827
vn 0.04367804 0.5687589 -0.5319827
vn 0.7750241 -0.08398498 -0.02615814
vn 0.7750241 -0.08398498 -0.02615814
vn 0.7750241 -0.08398498 -0.02615814
vn 0.7750241 -0.08398498 -0.02615814
vn -0.04367804 -0.5687589 0.5319827
vn -0.04367804 -0.5687589 0.5319827
vn -0.04367804 -0.5687589 0.5319827
vn -0.04367804 -0.5687589 0.5319827
vn 0.07635421 0.5271242 0.5698335
vn 0.07635421 0.5271242 0.5698335
vn 0.07635421 0.5271242 0.5698335
vn 0.07635421 0.5271242 0.5698335
vn -0.07635421 -0.5271242 -0.5698335
vn -0.07635421 -0.5271242 -0.5698335
vn -0.07635421 -0.5271242 -0.5698335
vn -0.07635421 -0.5271242 -0.5698335

vt 0 0
vt -1 0
vt 0 1
vt -1 1
vt 0 0
vt -0.07990626 0
vt 0 1
vt -0.07990626 1
vt 1 0
vt 0 0
vt 1 1
vt 0 1
vt 0.07990626 0
vt 0 0
vt 0.07990626 1
vt 0 1
vt 0 0
vt 1 0
vt 0 -0.07990626
vt 1 -0.07990626
vt 0 -0.07990626
vt -1 -0.07990626
vt 0 0
vt -1 0

g pb_Mesh-244028
usemtl 01
f 3/3/3 2/2/2 1/1/1
f 3/3/3 4/4/4 2/2/2
f 7/7/7 6/6/6 5/5/5
f 7/7/7 8/8/8 6/6/6
f 11/11/11 10/10/10 9/9/9
f 11/11/11 12/12/12 10/10/10
f 15/15/15 14/14/14 13/13/13
f 15/15/15 16/16/16 14/14/14
f 19/19/19 18/18/18 17/17/17
f 19/19/19 20/20/20 18/18/18
f 23/23/23 22/22/22 21/21/21
f 23/23/23 24/24/24 22/22/22

g Prism
v -2.152318 0.3340905 -1.726958
v -2.04408 0.8378004 -2.013901
v -2.132482 -0.1807355 -2.013901
v -2.152318 0.3340905 -1.726958
v -2.084493 0.8413081 -2.022989
v -2.04408 0.8378004 -2.013901
v -2.192732 0.3375982 -1.736045
v -2.192732 0.3375982 -1.736045
v -2.172896 -0.1772279 -2.022989
v -2.084493 0.8413081 -2.022989
v -2.192732 0.3375982 -1.736045
v -2.132482 -0.1807355 -2.013901
v -2.172896 -0.1772279 -2.022989
v -2.152318 0.3340905 -1.726958
v -2.132482 -0.1807355 -2.013901
v -2.04408 0.8378004 -2.013901
v -2.172896 -0.1772279 -2.022989
v -2.084493 0.8413081 -2.022989

vn 0.04041376 -0.00350765 0.00908716
vn 0.04041376 -0.00350765 0.00908716
vn 0.04041376 -0.00350765 0.00908716
vn 0.05043094 0.9134919 0.1283249
vn 0.05043094 0.9134919 0.1283249
vn 0.05043094 0.9134919 0.1283249
vn 0.05043094 0.9134919 0.1283249
vn -0.04041376 0.00350765 -0.00908716
vn -0.04041376 0.00350765 -0.00908716
vn -0.04041376 0.00350765 -0.00908716
vn -0.107708 -0.9085206 0.128325
vn -0.107708 -0.9085206 0.128325
vn -0.107708 -0.9085206 0.128325
vn -0.107708 -0.9085206 0.128325
vn 0.06403765 -0.005558065 -0.2869433
vn 0.06403765 -0.005558065 -0.2869433
vn 0.06403765 -0.005558065 -0.2869433
vn 0.06403765 -0.005558065 -0.2869433

vt 0.5 1
vt 1 0
vt 0 0
vt 0 0.6708204
vt 1 -0.4472136
vt 0 -0.4472136
vt 1 0.6708204
vt -0.5 1
vt 0 0
vt -1 0
vt -1 1.118034
vt 0 0
vt -1 0
vt 0 1.118034
vt 0 0
vt -1 0
vt 0 1
vt -1 1

g pb_Mesh-251954
usemtl Default_Prototype
f 27/27/27 26/26/26 25/25/25
f 30/30/30 29/29/29 28/28/28
f 29/29/29 31/31/31 28/28/28
f 34/34/34 33/33/33 32/32/32
f 37/37/37 36/36/36 35/35/35
f 36/36/36 38/38/38 35/35/35
f 41/41/41 40/40/40 39/39/39
f 41/41/41 42/42/42 40/40/40

g Prism (1)
v -2.052851 0.2988072 -2.03041
v -2.10028 -0.2050635 -1.372482
v -2.020964 0.7709816 -1.348472
v -2.052851 0.2988072 -2.03041
v -2.147892 -0.2011987 -1.398457
v -2.10028 -0.2050635 -1.372482
v -2.100463 0.3026721 -2.056385
v -2.100463 0.3026721 -2.056385
v -2.068576 0.7748466 -1.374448
v -2.147892 -0.2011987 -1.398457
v -2.100463 0.3026721 -2.056385
v -2.020964 0.7709816 -1.348472
v -2.068576 0.7748466 -1.374448
v -2.052851 0.2988072 -2.03041
v -2.020964 0.7709816 -1.348472
v -2.10028 -0.2050635 -1.372482
v -2.068576 0.7748466 -1.374448
v -2.147892 -0.2011987 -1.398457

vn 0.04215976 -0.003436013 0.0004077705
vn 0.04215976 -0.003436013 0.0004077705
vn 0.04215976 -0.003436013 0.0004077705
vn -0.06680441 -0.865863 -0.3210331
vn -0.06680441 -0.865863 -0.3210331
vn -0.06680442 -0.8658631 -0.3210332
vn -0.06680441 -0.865863 -0.3210332
vn -0.04215976 0.003436013 -0.0004077705
vn -0.04215976 0.003436013 -0.0004077705
vn -0.04215976 0.003436013 -0.0004077705
vn 0.07501961 0.8799469 -0.2780929
vn 0.07501961 0.8799469 -0.2780929
vn 0.07501961 0.8799469 -0.2780929
vn 0.07501961 0.8799469 -0.2780929
vn -0.009179519 -0.01572416 0.6695428
vn -0.00917952 -0.01572416 0.6695428
vn -0.00917952 -0.01572416 0.6695428
vn -0.00917952 -0.01572416 0.6695428

vt 0.4993459 0.9619416
vt 0.9993458 -0.0380583
vt -0.0006541404 -0.0380583
vt -0.1264306 0.6361113
vt 1.017188 -0.4393398
vt -0.1177617 -0.4818889
vt 1.008519 0.6786606
vt -0.5 1
vt 0 0
vt -1 0
vt -0.9917761 1.125242
vt 0.1350802 -0.03531162
vt -0.999869 0.007237725
vt 0.1431731 1.082693
vt 0.0006541404 -0.1363079
vt -0.9993458 -0.1363079
vt 0 0.9994385
vt -1 0.9994385

g pb_Mesh-270904
usemtl Default_Prototype
f 45/45/45 44/44/44 43/43/43
f 48/48/48 47/47/47 46/46/46
f 47/47/47 49/49/49 46/46/46
f 52/52/52 51/51/51 50/50/50
f 55/55/55 54/54/54 53/53/53
f 54/54/54 56/56/56 53/53/53
f 59/59/59 58/58/58 57/57/57
f 59/59/59 60/60/60 58/58/58

g Prism (2)
v -1.943986 0.3164727 -1.733105
v -1.989598 0.833536 -2.013
v -2.078 -0.185 -2.013
v -1.943986 0.3164727 -1.733105
v -2.029019 0.8369575 -2.000255
v -1.989598 0.833536 -2.013
v -1.983407 0.3198942 -1.720361
v -1.983407 0.3198942 -1.720361
v -2.117421 -0.1815785 -2.000255
v -2.029019 0.8369575 -2.000255
v -1.983407 0.3198942 -1.720361
v -2.078 -0.185 -2.013
v -2.117421 -0.1815785 -2.000255
v -1.943986 0.3164727 -1.733105
v -2.078 -0.185 -2.013
v -1.989598 0.833536 -2.013
v -2.117421 -0.1815785 -2.000255
v -2.029019 0.8369575 -2.000255

vn 0.03942102 -0.003421488 -0.01274474
vn 0.03942102 -0.003421488 -0.01274474
vn 0.03942102 -0.003421488 -0.01274474
vn 0.1192351 0.9075201 0.1251728
vn 0.1192351 0.9075201 0.1251728
vn 0.1192351 0.9075201 0.1251728
vn 0.1192351 0.9075201 0.1251728
vn -0.03942102 0.003421488 0.01274474
vn -0.03942102 0.003421488 0.01274474
vn -0.03942102 0.003421488 0.01274474
vn -0.03890402 -0.9144924 0.1251726
vn -0.03890402 -0.9144924 0.1251726
vn -0.03890402 -0.9144924 0.1251726
vn -0.03890402 -0.9144924 0.1251726
vn -0.08981288 0.007795249 -0.2798947
vn -0.08981288 0.007795249 -0.2798947
vn -0.08981288 0.007795249 -0.2798947
vn -0.08981288 0.007795249 -0.2798947

vt 0.5 1
vt 1 0
vt 0 0
vt 0 0.6708204
vt 1 -0.4472136
vt 0 -0.4472136
vt 1 0.6708204
vt -0.5 1
vt 0 0
vt -1 0
vt -1 1.118034
vt 0 0
vt -1 0
vt 0 1.118034
vt 0 0
vt -1 0
vt 0 1
vt -1 1

g pb_Mesh-318902
usemtl Default_Prototype
f 63/63/63 62/62/62 61/61/61
f 66/66/66 65/65/65 64/64/64
f 65/65/65 67/67/67 64/64/64
f 70/70/70 69/69/69 68/68/68
f 73/73/73 72/72/72 71/71/71
f 72/72/72 74/74/74 71/71/71
f 77/77/77 76/76/76 75/75/75
f 77/77/77 78/78/78 76/76/76

