# Exported from ProBuilder
# http://www.procore3d.com/probuilder
# 06/22/2017 11:18:09

mtllib ./GreenFishy.mtl
o GreenFishy

g Topfin
v -0.9410048 0.2814218 1.288793
v -0.9419677 0.2572728 1.230802
v -0.8565136 0.7275344 1.697046
v -0.9419677 0.2572728 1.230802
v -0.8671082 0.7604632 1.762728
v -0.8565136 0.7275344 1.697046
v -1.007467 0.106593 0.9066946
v -1.003991 0.105857 0.9112734
v -0.9520582 0.5222464 1.122869
v -0.9736279 0.2794339 1.021709
v -1.003991 0.105857 0.9112734
v -0.9410048 0.2814218 1.288793
v -0.9736279 0.2794339 1.021709
v -0.8565136 0.7275344 1.697046
v -0.8565136 0.7275344 1.697046
v -0.8671082 0.7604632 1.762728
v -0.9736279 0.2794339 1.021709
v -0.8671082 0.7604632 1.762728
v -0.9520582 0.5222464 1.122869
v -0.9736279 0.2794339 1.021709
v -1.003991 0.105857 0.9112734
v -1.007467 0.106593 0.9066946
v -0.9410048 0.2814218 1.288793
v -1.007467 0.106593 0.9066946
v -0.9419677 0.2572728 1.230802
v -0.9410048 0.2814218 1.288793
v -0.9419677 0.2572728 1.230802
v -1.007467 0.106593 0.9066946
v -0.8671082 0.7604632 1.762728
v -1.007467 0.106593 0.9066946
v -0.9520582 0.5222464 1.122869
v -0.8671082 0.7604632 1.762728

vn -1.100283 -0.5258953 -1.240096
vn 0.1859419 -0.6073812 0.9477448
vn 0.1859419 -0.6073812 0.9477448
vn 0.1859419 -0.6073812 0.9477448
vn 0.9061401 0.1456401 1.326053
vn 0.1859419 -0.6073812 0.9477448
vn 0.6276303 0.8270502 -0.1743889
vn 0.9540139 0.8975489 0.4094805
vn 0.9540139 0.8975489 0.4094805
vn 1.010698 0.8927754 0.5428067
vn 1.136464 0.7442552 1.026804
vn 1.138076 0.7612827 1.027357
vn 1.138076 0.7612827 1.027357
vn 1.138618 0.7677687 1.027499
vn -0.344888 0.59429 -0.9178032
vn 1.122634 0.9252492 0.9228407
vn 1.122634 0.9252492 0.9228407
vn 1.122634 0.9252492 0.9228407
vn 1.141774 0.8109242 1.032505
vn 1.122634 0.9252492 0.9228407
vn -0.8262753 -1.206695 -0.3921748
vn -0.4427867 0.5637834 -0.8421181
vn -0.4427867 0.5637834 -0.8421181
vn -0.4427867 0.5637834 -0.8421181
vn 0.06284076 0.9807726 -0.4343152
vn -0.4427867 0.5637834 -0.8421181
vn -1.094241 -0.9658051 -0.8165781
vn -1.094241 -0.9658051 -0.8165781
vn -1.094241 -0.9658051 -0.8165781
vn -1.141245 -0.766402 -1.05183
vn -1.141245 -0.766402 -1.05183
vn -1.141245 -0.766402 -1.05183

vt -0.3165813 0.1791599
vt -0.496432 0.1173688
vt 0.2816502 1.164872
vt -0.496432 0.1173688
vt 0.7542656 1.237354
vt 0.2816502 1.164872
vt 0.1194409 -0.3155918
vt 0.04686599 -0.3221421
vt 0.78509 0.6265556
vt 0.1960958 0.06685784
vt 0.7535478 -0.3206063
vt 0.32934 0.07389989
vt 0.7571205 0.09623432
vt 0.255535 1.217528
vt 0.3181143 0.915263
vt 0.7870014 1.042316
vt 0.1107057 -0.3021301
vt 0.7870014 1.042316
vt 0.7133256 0.1720085
vt 0.1107057 -0.3021301
vt 0 -0.7816567
vt -0.07285119 -0.7833085
vt 0.09907069 -0.2108919
vt -0.07285119 -0.7833085
vt 0.26627 -0.2999077
vt 0.09907069 -0.2108919
vt 0.1028133 -0.2439531
vt -0.3553512 -0.6168469
vt -0.7388778 1.211226
vt -0.9208397 -0.2480745
vt -0.9944258 0.9031489
vt -0.3207965 1.520793

g pb_Mesh18202
usemtl green-v1.0
f 3/3/3 2/2/2 1/1/1
f 6/6/6 5/5/5 4/4/4
f 9/9/9 8/8/8 7/7/7
f 9/9/9 10/10/10 8/8/8
f 13/13/13 12/12/12 11/11/11
f 13/13/13 14/14/14 12/12/12
f 17/17/17 16/16/16 15/15/15
f 20/20/20 19/19/19 18/18/18
f 23/23/23 22/22/22 21/21/21
f 26/26/26 25/25/25 24/24/24
f 29/29/29 28/28/28 27/27/27
f 32/32/32 31/31/31 30/30/30

g Center
v -0.9384934 -0.1391628 1.605765
v -1.052839 -0.6358638 1.03689
v -0.9575357 0.3593732 1.10856
v -1.071881 -0.1373277 0.539685
v -1.052839 -0.6358638 1.03689
v -1.001885 -0.6019248 1.08269
v -1.071881 -0.1373277 0.539685
v -1.020927 -0.1033887 0.5854848
v -1.001885 -0.6019248 1.08269
v -0.8875394 -0.1052239 1.651565
v -1.020927 -0.1033887 0.5854848
v -0.9065817 0.3933122 1.15436
v -0.8875394 -0.1052239 1.651565
v -0.9384934 -0.1391628 1.605765
v -0.9065817 0.3933122 1.15436
v -0.9575357 0.3593732 1.10856
v -0.9575357 0.3593732 1.10856
v -1.071881 -0.1373277 0.539685
v -0.9065817 0.3933122 1.15436
v -1.020927 -0.1033887 0.5854848
v -0.8875394 -0.1052239 1.651565
v -1.001885 -0.6019248 1.08269
v -0.9384934 -0.1391628 1.605765
v -1.052839 -0.6358638 1.03689

vn -1.137091 -0.757383 -1.022069
vn -1.137091 -0.757383 -1.022069
vn -1.137091 -0.757383 -1.022069
vn -1.137091 -0.757383 -1.022069
vn -0.1709002 -0.7423688 -0.8502402
vn -0.1709001 -0.7423686 -0.8502401
vn -0.1709001 -0.7423686 -0.8502401
vn -0.1709 -0.7423686 -0.8502401
vn 1.137091 0.7573829 1.022069
vn 1.137091 0.7573829 1.022069
vn 1.137091 0.7573829 1.022069
vn 1.137091 0.7573829 1.022069
vn 0.1709013 0.7423695 0.8502412
vn 0.1709013 0.7423695 0.8502411
vn 0.1709013 0.7423695 0.8502411
vn 0.1709012 0.7423695 0.850241
vn -0.02926247 0.76609 -0.7640454
vn -0.02926197 0.7660902 -0.7640449
vn -0.02926197 0.7660902 -0.7640449
vn -0.02926147 0.7660906 -0.7640445
vn 0.0292626 -0.7660898 0.7640455
vn 0.02926209 -0.7660902 0.764045
vn 0.02926209 -0.7660902 0.764045
vn 0.02926158 -0.7660906 0.7640445

vt 0 0
vt -0.5767893 0
vt 0 0.5609946
vt -0.5767893 0.5609946
vt 0 0
vt -0.0448108 0
vt 0 0.5609946
vt -0.0448108 0.5609946
vt 0.5767893 0
vt 0 0
vt 0.5767893 0.5609946
vt 0 0.5609946
vt 0.0448108 0
vt 0 0
vt 0.0448108 0.5609946
vt 0 0.5609946
vt 0 0
vt 0.5767893 0
vt 0 -0.0448108
vt 0.5767893 -0.0448108
vt 0 -0.0448108
vt -0.5767893 -0.0448108
vt 0 0
vt -0.5767893 0

g pb_Mesh18418
usemtl green-v1.0
f 35/35/35 34/34/34 33/33/33
f 35/35/35 36/36/36 34/34/34
f 39/39/39 38/38/38 37/37/37
f 39/39/39 40/40/40 38/38/38
f 43/43/43 42/42/42 41/41/41
f 43/43/43 44/44/44 42/42/42
f 47/47/47 46/46/46 45/45/45
f 47/47/47 48/48/48 46/46/46
f 51/51/51 50/50/50 49/49/49
f 51/51/51 52/52/52 50/50/50
f 55/55/55 54/54/54 53/53/53
f 55/55/55 56/56/56 54/54/54

g Prism
v -0.8202217 0.3165353 1.952873
v -0.8733385 -0.05113022 1.432168
v -0.8674472 -0.1956395 1.590914
v -0.8202217 0.3165353 1.952873
v -0.947006 -0.1030781 1.362387
v -0.8733385 -0.05113022 1.432168
v -0.8938891 0.2645875 1.883092
v -0.8938891 0.2645875 1.883092
v -0.9411147 -0.2475874 1.521133
v -0.947006 -0.1030781 1.362387
v -0.8938891 0.2645875 1.883092
v -0.8674472 -0.1956395 1.590914
v -0.9411147 -0.2475874 1.521133
v -0.8202217 0.3165353 1.952873
v -0.8674472 -0.1956395 1.590914
v -0.8733385 -0.05113022 1.432168
v -0.9411147 -0.2475874 1.521133
v -0.947006 -0.1030781 1.362387

vn 1.146877 0.8087398 1.086377
vn 1.146877 0.8087398 1.086377
vn 1.146877 0.8087398 1.086377
vn -0.016072 0.836931 -0.6743764
vn -0.016072 0.836931 -0.6743764
vn -0.0160725 0.8369307 -0.6743768
vn -0.01607149 0.8369314 -0.674376
vn -1.146877 -0.8087395 -1.086377
vn -1.146877 -0.8087395 -1.086377
vn -1.146877 -0.8087395 -1.086377
vn 0.04266144 -0.6037827 0.9082729
vn 0.04266144 -0.6037827 0.9082729
vn 0.04266217 -0.6037821 0.9082736
vn 0.04266071 -0.6037832 0.9082722
vn -0.0826241 -0.7244784 -0.7268034
vn -0.08262409 -0.7244785 -0.7268034
vn -0.08262409 -0.7244785 -0.7268034
vn -0.08262409 -0.7244785 -0.7268034

vt 0.09899699 0.6072234
vt 0.197994 0
vt 0 0
vt 0 0.5833815
vt 0.06423307 -0.03185878
vt 0 -0.03185878
vt 0.06423307 0.5833815
vt -0.09899699 0.6072234
vt 0 0
vt -0.197994 0
vt -0.06423307 0.6152403
vt 0 0
vt -0.06423307 0
vt 0 0.6152403
vt 0 0
vt -0.197994 0
vt 0 0.06423307
vt -0.197994 0.06423307

g pb_Mesh18170
usemtl green-v1.0
f 59/59/59 58/58/58 57/57/57
f 62/62/62 61/61/61 60/60/60
f 61/61/61 63/63/63 60/60/60
f 66/66/66 65/65/65 64/64/64
f 69/69/69 68/68/68 67/67/67
f 68/68/68 70/70/70 67/67/67
f 73/73/73 72/72/72 71/71/71
f 73/73/73 74/74/74 72/72/72

g Prism (1)
v -0.8072928 -0.4376985 2.094608
v -0.8285469 0.04664272 1.639298
v -0.8413755 -0.1036469 1.508939
v -0.8072928 -0.4376985 2.094608
v -0.9022545 -0.006377538 1.569432
v -0.8285469 0.04664272 1.639298
v -0.8810005 -0.4907188 2.024742
v -0.8810005 -0.4907188 2.024742
v -0.9150831 -0.1566671 1.439073
v -0.9022545 -0.006377538 1.569432
v -0.8810005 -0.4907188 2.024742
v -0.8413755 -0.1036469 1.508939
v -0.9150831 -0.1566671 1.439073
v -0.8072928 -0.4376985 2.094608
v -0.8413755 -0.1036469 1.508939
v -0.8285469 0.04664272 1.639298
v -0.9150831 -0.1566671 1.439073
v -0.9022545 -0.006377538 1.569432

vn 1.147503 0.8254361 1.087693
vn 1.147503 0.8254361 1.087693
vn 1.147503 0.8254361 1.087693
vn 0.0712812 0.6407381 0.7877466
vn 0.0712812 0.6407381 0.7877466
vn 0.07128119 0.6407381 0.7877465
vn 0.0712812 0.6407381 0.7877466
vn -1.147503 -0.825436 -1.087693
vn -1.147503 -0.825436 -1.087693
vn -1.147503 -0.825436 -1.087693
vn -0.05661741 -0.8576035 -0.5118979
vn -0.05661741 -0.8576035 -0.5118979
vn -0.05661735 -0.8576034 -0.5118978
vn -0.05661746 -0.8576036 -0.511898
vn -0.04556571 0.6738809 -0.8571637
vn -0.04556572 0.6738809 -0.8571637
vn -0.04556572 0.6738809 -0.8571637
vn -0.04556572 0.6738808 -0.8571637

vt 0.09899699 0.6072234
vt 0.197994 0
vt 0 0
vt 0 0.5833815
vt 0.06423307 -0.03185878
vt 0 -0.03185878
vt 0.06423307 0.5833815
vt -0.09899699 0.6072234
vt 0 0
vt -0.197994 0
vt -0.06423307 0.6152403
vt 0 0
vt -0.06423307 0
vt 0 0.6152403
vt 0 0
vt -0.197994 0
vt 0 0.06423307
vt -0.197994 0.06423307

g pb_Mesh18250
usemtl green-v1.0
f 77/77/77 76/76/76 75/75/75
f 80/80/80 79/79/79 78/78/78
f 79/79/79 81/81/81 78/78/78
f 84/84/84 83/83/83 82/82/82
f 87/87/87 86/86/86 85/85/85
f 86/86/86 88/88/88 85/85/85
f 91/91/91 90/90/90 89/89/89
f 91/91/91 92/92/92 90/90/90

g Topfin (1)
v -1.042143 -0.6160588 1.312218
v -1.055617 -0.5960191 1.237715
v -1.037747 -1.036994 1.724734
v -1.055617 -0.5960191 1.237715
v -1.007904 -1.064478 1.835903
v -1.037747 -1.036994 1.724734
v -1.056829 -0.464453 0.9497465
v -1.060029 -0.4636273 0.9476193
v -1.06398 -0.8666096 1.182695
v -1.067034 -0.6306297 1.05393
v -1.060029 -0.4636273 0.9476193
v -1.042143 -0.6160588 1.312218
v -1.067034 -0.6306297 1.05393
v -1.037747 -1.036994 1.724734
v -1.037747 -1.036994 1.724734
v -1.007904 -1.064478 1.835903
v -1.067034 -0.6306297 1.05393
v -1.007904 -1.064478 1.835903
v -1.06398 -0.8666096 1.182695
v -1.067034 -0.6306297 1.05393
v -1.060029 -0.4636273 0.9476193
v -1.056829 -0.464453 0.9497465
v -1.042143 -0.6160588 1.312218
v -1.056829 -0.464453 0.9497465
v -1.055617 -0.5960191 1.237715
v -1.042143 -0.6160588 1.312218
v -1.055617 -0.5960191 1.237715
v -1.056829 -0.464453 0.9497465
v -1.007904 -1.064478 1.835903
v -1.056829 -0.464453 0.9497465
v -1.06398 -0.8666096 1.182695
v -1.007904 -1.064478 1.835903

vn 1.048279 0.5085064 0.7708515
vn -0.01132731 0.6586033 0.6329619
vn -0.01132731 0.6586033 0.6329619
vn -0.01132731 0.6586033 0.6329619
vn -0.7948502 -0.1113893 -0.3197266
vn -0.01132731 0.6586033 0.6329619
vn -0.8023863 -0.8762741 -1.415764
vn -1.062361 -0.9269178 -1.396106
vn -1.062361 -0.9269178 -1.396106
vn -1.100067 -0.9165449 -1.356921
vn -1.140629 -0.7431022 -1.067047
vn -1.142135 -0.7601146 -1.0663
vn -1.142135 -0.7601146 -1.0663
vn -1.142637 -0.7665949 -1.065942
vn 0.2151392 -0.6330969 -0.2504859
vn -1.145139 -0.9295945 -1.126714
vn -1.145139 -0.9295945 -1.126714
vn -1.145139 -0.9295945 -1.126714
vn -1.144425 -0.8093993 -1.057571
vn -1.145139 -0.9295945 -1.126714
vn 0.9020263 1.227445 1.072225
vn 0.3541744 -0.59106 0.05092691
vn 0.3541744 -0.59106 0.05092691
vn 0.3541744 -0.59106 0.05092691
vn -0.1634833 -1.01054 -0.4661341
vn 0.3541744 -0.59106 0.05092691
vn 1.135101 0.9755339 1.186968
vn 1.135101 0.9755339 1.186968
vn 1.135101 0.9755339 1.186968
vn 1.139975 0.7637049 1.041984
vn 1.139975 0.7637049 1.041984
vn 1.139975 0.7637049 1.041984

vt -0.3165813 0.1791599
vt -0.496432 0.1173688
vt 0.2816502 1.164872
vt -0.496432 0.1173688
vt 0.7542656 1.237354
vt 0.2816502 1.164872
vt 0.1194409 -0.3155918
vt 0.04686599 -0.3221421
vt 0.78509 0.6265556
vt 0.1960958 0.06685784
vt 0.7535478 -0.3206063
vt 0.32934 0.07389989
vt 0.7571205 0.09623432
vt 0.255535 1.217528
vt 0.3181143 0.915263
vt 0.7870014 1.042316
vt 0.1107057 -0.3021301
vt 0.7870014 1.042316
vt 0.7133256 0.1720085
vt 0.1107057 -0.3021301
vt 0 -0.7816567
vt -0.07285119 -0.7833085
vt 0.09907069 -0.2108919
vt -0.07285119 -0.7833085
vt 0.26627 -0.2999077
vt 0.09907069 -0.2108919
vt 0.1028133 -0.2439531
vt -0.3553512 -0.6168469
vt -0.7388778 1.211226
vt -0.9208397 -0.2480745
vt -0.9944258 0.9031489
vt -0.3207965 1.520793

g pb_Mesh18388
usemtl green-v1.0
f 95/95/95 94/94/94 93/93/93
f 98/98/98 97/97/97 96/96/96
f 101/101/101 100/100/100 99/99/99
f 101/101/101 102/102/102 100/100/100
f 105/105/105 104/104/104 103/103/103
f 105/105/105 106/106/106 104/104/104
f 109/109/109 108/108/108 107/107/107
f 112/112/112 111/111/111 110/110/110
f 115/115/115 114/114/114 113/113/113
f 118/118/118 117/117/117 116/116/116
f 121/121/121 120/120/120 119/119/119
f 124/124/124 123/123/123 122/122/122

