# Exported from ProBuilder
# http://www.procore3d.com/probuilder
# 6/21/2017 6:44:52 PM

mtllib ./fishy.mtl
o fishy

g Center
v -1.05 0.614 1.258
v -1.080662 0.1662105 0.7570179
v -1.07558 1.083354 0.8400459
v -1.106243 0.6355647 0.3390637
v -1.080662 0.1662105 0.7570179
v -1.035935 0.1662105 0.7542804
v -1.106243 0.6355647 0.3390637
v -1.061515 0.6355647 0.3363262
v -1.035935 0.1662105 0.7542804
v -1.005273 0.614 1.255262
v -1.061515 0.6355647 0.3363262
v -1.030853 1.083354 0.8373083
v -1.005273 0.614 1.255262
v -1.05 0.614 1.258
v -1.030853 1.083354 0.8373083
v -1.07558 1.083354 0.8400459
v -1.07558 1.083354 0.8400459
v -1.106243 0.6355647 0.3390637
v -1.030853 1.083354 0.8373083
v -1.061515 0.6355647 0.3363262
v -1.005273 0.614 1.255262
v -1.035935 0.1662105 0.7542804
v -1.05 0.614 1.258
v -1.080662 0.1662105 0.7570179

vn -0.9981323 0 0.06108975
vn -0.9981323 0 0.06108975
vn -0.9981323 0 0.06108975
vn -0.9981323 0 0.06108975
vn -0.05315999 -0.7763484 -0.8685704
vn -0.05315999 -0.7763484 -0.8685704
vn -0.05315999 -0.7763484 -0.8685704
vn -0.05315999 -0.7763484 -0.8685704
vn 0.9981323 0 -0.06108975
vn 0.9981323 0 -0.06108975
vn 0.9981323 0 -0.06108975
vn 0.9981323 0 -0.06108975
vn 0.05315999 0.7763484 0.8685704
vn 0.05315999 0.7763484 0.8685704
vn 0.05315999 0.7763484 0.8685704
vn 0.05315999 0.7763484 0.8685704
vn -0.04559853 0.8366465 -0.7450234
vn -0.04559853 0.8366465 -0.7450234
vn -0.04559853 0.8366465 -0.7450234
vn -0.04559853 0.8366465 -0.7450234
vn 0.04559853 -0.8366465 0.7450234
vn 0.04559853 -0.8366465 0.7450234
vn 0.04559853 -0.8366465 0.7450234
vn 0.04559853 -0.8366465 0.7450234

vt 0 0
vt -0.5767893 0
vt 0 0.5609946
vt -0.5767893 0.5609946
vt 0 0
vt -0.0448108 0
vt 0 0.5609946
vt -0.0448108 0.5609946
vt 0.5767893 0
vt 0 0
vt 0.5767893 0.5609946
vt 0 0.5609946
vt 0.0448108 0
vt 0 0
vt 0.0448108 0.5609946
vt 0 0.5609946
vt 0 0
vt 0.5767893 0
vt 0 -0.0448108
vt 0.5767893 -0.0448108
vt 0 -0.0448108
vt -0.5767893 -0.0448108
vt 0 0
vt -0.5767893 0

g pb_Mesh-26118
usemtl Default_Prototype
f 3/3/3 2/2/2 1/1/1
f 3/3/3 4/4/4 2/2/2
f 7/7/7 6/6/6 5/5/5
f 7/7/7 8/8/8 6/6/6
f 11/11/11 10/10/10 9/9/9
f 11/11/11 12/12/12 10/10/10
f 15/15/15 14/14/14 13/13/13
f 15/15/15 16/16/16 14/14/14
f 19/19/19 18/18/18 17/17/17
f 19/19/19 20/20/20 18/18/18
f 23/23/23 22/22/22 21/21/21
f 23/23/23 24/24/24 22/22/22

g Prism (1)
v -0.9280821 0.2478758 1.586647
v -0.9585406 0.723088 1.197075
v -0.949 0.575 1.066
v -0.9280821 0.2478758 1.586647
v -1.022641 0.7189693 1.197062
v -0.9585406 0.723088 1.197075
v -0.992183 0.2437571 1.586634
v -0.992183 0.2437571 1.586634
v -1.013101 0.5708813 1.065988
v -1.022641 0.7189693 1.197062
v -0.992183 0.2437571 1.586634
v -0.949 0.575 1.066
v -1.013101 0.5708813 1.065988
v -0.9280821 0.2478758 1.586647
v -0.949 0.575 1.066
v -0.9585406 0.723088 1.197075
v -1.013101 0.5708813 1.065988
v -1.022641 0.7189693 1.197062

vn 0.9979422 0.06412107 0.0001934767
vn 0.9979422 0.06412107 0.0001934767
vn 0.9979422 0.06412107 0.0001934767
vn -0.04075102 0.6318904 0.7739857
vn -0.04075102 0.6318904 0.7739857
vn -0.04075102 0.6318904 0.7739857
vn -0.04075102 0.6318904 0.7739857
vn -0.9979422 -0.06412107 -0.0001934767
vn -0.9979422 -0.06412107 -0.0001934767
vn -0.9979422 -0.06412107 -0.0001934767
vn 0.0543652 -0.8445011 -0.5327873
vn 0.0543652 -0.8445011 -0.5327873
vn 0.0543652 -0.8445011 -0.5327873
vn 0.0543652 -0.8445011 -0.5327873
vn -0.04230428 0.66066 -0.7494925
vn -0.04230428 0.66066 -0.7494925
vn -0.04230428 0.66066 -0.7494925
vn -0.04230428 0.66066 -0.7494925

vt 0.09899699 0.6072234
vt 0.197994 0
vt 0 0
vt 0 0.5833815
vt 0.06423307 -0.03185878
vt 0 -0.03185878
vt 0.06423307 0.5833815
vt -0.09899699 0.6072234
vt 0 0
vt -0.197994 0
vt -0.06423307 0.6152403
vt 0 0
vt -0.06423307 0
vt 0 0.6152403
vt 0 0
vt -0.197994 0
vt 0 0.06423307
vt -0.197994 0.06423307

g pb_Mesh-54614
usemtl Default_Prototype
f 27/27/27 26/26/26 25/25/25
f 30/30/30 29/29/29 28/28/28
f 29/29/29 31/31/31 28/28/28
f 34/34/34 33/33/33 32/32/32
f 37/37/37 36/36/36 35/35/35
f 36/36/36 38/38/38 35/35/35
f 41/41/41 40/40/40 39/39/39
f 41/41/41 42/42/42 40/40/40

g Prism
v -0.9960952 1.003775 1.526843
v -0.9799926 0.6462417 1.026411
v -0.973 0.506 1.166
v -0.9960952 1.003775 1.526843
v -1.044152 0.6431713 1.026541
v -0.9799926 0.6462417 1.026411
v -1.060255 1.000704 1.526972
v -1.060255 1.000704 1.526972
v -1.03716 0.5029295 1.166129
v -1.044152 0.6431713 1.026541
v -1.060255 1.000704 1.526972
v -0.973 0.506 1.166
v -1.03716 0.5029295 1.166129
v -0.9960952 1.003775 1.526843
v -0.973 0.506 1.166
v -0.9799926 0.6462417 1.026411
v -1.03716 0.5029295 1.166129
v -1.044152 0.6431713 1.026541

vn 0.9988549 0.04780212 -0.002011657
vn 0.9988549 0.04780212 -0.002011657
vn 0.9988549 0.04780212 -0.002011657
vn -0.04005084 0.8124073 -0.5817133
vn -0.04005084 0.8124073 -0.5817133
vn -0.04005084 0.8124073 -0.5817133
vn -0.04005084 0.8124073 -0.5817133
vn -0.9988549 -0.04780212 0.002011657
vn -0.9988549 -0.04780212 0.002011657
vn -0.9988549 -0.04780212 0.002011657
vn 0.02966383 -0.5857596 0.8099419
vn 0.02966383 -0.5857596 0.8099419
vn 0.02966383 -0.5857596 0.8099419
vn 0.02966383 -0.5857596 0.8099419
vn 0.03227627 -0.7042779 -0.7091904
vn 0.03227627 -0.7042779 -0.7091904
vn 0.03227627 -0.7042779 -0.7091904
vn 0.03227627 -0.7042779 -0.7091904

vt 0.09899699 0.6072234
vt 0.197994 0
vt 0 0
vt 0 0.5833815
vt 0.06423307 -0.03185878
vt 0 -0.03185878
vt 0.06423307 0.5833815
vt -0.09899699 0.6072234
vt 0 0
vt -0.197994 0
vt -0.06423307 0.6152403
vt 0 0
vt -0.06423307 0
vt 0 0.6152403
vt 0 0
vt -0.197994 0
vt 0 0.06423307
vt -0.197994 0.06423307

g pb_Mesh-29948
usemtl Default_Prototype
f 45/45/45 44/44/44 43/43/43
f 48/48/48 47/47/47 46/46/46
f 47/47/47 49/49/49 46/46/46
f 52/52/52 51/51/51 50/50/50
f 55/55/55 54/54/54 53/53/53
f 54/54/54 56/56/56 53/53/53
f 59/59/59 58/58/58 57/57/57
f 59/59/59 60/60/60 58/58/58

g Topfin
v -1.066136 1.019457 0.9819541
v -1.060844 0.9929 0.922735
v -1.049575 1.427031 1.3453
v -1.060844 0.9929 0.922735
v -1.067737 1.471032 1.424723
v -1.049575 1.427031 1.3453
v -1.090022 0.8716888 0.6512512
v -1.086811 0.8687149 0.65224
v -1.08611 1.259317 0.8492088
v -1.079401 1.026506 0.7477481
v -1.086811 0.8687149 0.65224
v -1.066136 1.019457 0.9819541
v -1.079401 1.026506 0.7477481
v -1.049575 1.427031 1.3453
v -1.049575 1.427031 1.3453
v -1.067737 1.471032 1.424723
v -1.079401 1.026506 0.7477481
v -1.08611 1.259317 0.8492088
v -1.086811 0.8687149 0.65224
v -1.090022 0.8716888 0.6512512
v -1.066136 1.019457 0.9819541
v -1.090022 0.8716888 0.6512512
v -1.060844 0.9929 0.922735
v -1.066136 1.019457 0.9819541
v -1.060844 0.9929 0.922735
v -1.090022 0.8716888 0.6512512
v -1.067737 1.471032 1.424723
v -1.090022 0.8716888 0.6512512
v -1.08611 1.259317 0.8492088
v -1.067737 1.471032 1.424723

vn -0.003696755 0.1280141 -0.6638561
vn -0.01827897 -0.203648 0.6490046
vn -0.01827897 -0.203648 0.6490046
vn -0.01827897 -0.203648 0.6490046
vn -0.01172147 -0.1830269 0.6625898
vn -0.01827897 -0.203648 0.6490046
vn 0.01439167 0.1302205 -0.7038588
vn 0.01899682 0.1487554 -0.6886951
vn 0.01899682 0.1487554 -0.6886951
vn 0.0209746 0.1565831 -0.680805
vn 0.05062252 0.2013597 -0.4286353
vn 0.05205361 0.2313916 -0.405894
vn 0.05205361 0.2313916 -0.405894
vn 0.05248577 0.2418551 -0.3970297
vn 0.02415347 0.2759626 -0.5618444
vn 0.04332948 0.3091341 -0.4562153
vn 0.04332948 0.3091341 -0.4562153
vn 0.0550365 0.3038368 -0.3159171
vn -0.03464895 -0.3279268 0.4670199
vn 0.02950648 0.3422289 -0.4384138
vn 0.02950648 0.3422289 -0.4384138
vn 0.02950648 0.3422289 -0.4384138
vn 0.03148869 0.3377438 -0.4501047
vn 0.02950648 0.3422289 -0.4384138
vn -0.0363884 -0.2768508 0.5367903
vn -0.0363884 -0.2768508 0.5367903
vn -0.0363884 -0.2768508 0.5367903
vn -0.05800831 -0.2650358 0.2698077
vn -0.05800831 -0.2650358 0.2698077
vn -0.05800831 -0.2650358 0.2698077

vt -0.3165813 0.1791599
vt -0.496432 0.1173688
vt 0.2816502 1.164872
vt -0.496432 0.1173688
vt 0.7542656 1.237354
vt 0.2816502 1.164872
vt 0.1194409 -0.3155918
vt 0.04686599 -0.3221421
vt 0.78509 0.6265556
vt 0.1960958 0.06685784
vt 0.7535478 -0.3206063
vt 0.32934 0.07389989
vt 0.7571205 0.09623432
vt 0.255535 1.217528
vt 0.3181143 0.915263
vt 0.7870014 1.042316
vt 0.1107057 -0.3021301
vt 0.7133256 0.1720085
vt 0 -0.7816567
vt -0.07285119 -0.7833085
vt 0.09907069 -0.2108919
vt -0.07285119 -0.7833085
vt 0.26627 -0.2999077
vt 0.09907069 -0.2108919
vt 0.1028133 -0.2439531
vt -0.3553512 -0.6168469
vt -0.7388778 1.211226
vt -0.9208397 -0.2480745
vt -0.9944258 0.9031489
vt -0.3207965 1.520793

g pb_Mesh-100526
usemtl Default_Prototype
f 63/63/63 62/62/62 61/61/61
f 66/66/66 65/65/65 64/64/64
f 69/69/69 68/68/68 67/67/67
f 69/69/69 70/70/70 68/68/68
f 73/73/73 72/72/72 71/71/71
f 73/73/73 74/74/74 72/72/72
f 77/77/77 76/76/76 75/75/75
f 77/77/77 78/78/78 76/76/76
f 81/81/81 80/80/80 79/79/79
f 84/84/84 83/83/83 82/82/82
f 87/87/87 86/86/86 85/85/85
f 90/90/90 89/89/89 88/88/88

g Topfin (1)
v -1.091295 0.1954452 1.025965
v -1.101152 0.2211295 0.9669456
v -1.080108 -0.2066073 1.395614
v -1.101152 0.2211295 0.9669456
v -1.055872 -0.2494674 1.474033
v -1.080108 -0.2066073 1.395614
v -1.093062 0.3381883 0.6922115
v -1.096182 0.3411857 0.6934029
v -1.082147 -0.0464269 0.8957067
v -1.096372 0.1848602 0.791572
v -1.096182 0.3411857 0.6934029
v -1.091295 0.1954452 1.025965
v -1.096372 0.1848602 0.791572
v -1.080108 -0.2066073 1.395614
v -1.080108 -0.2066073 1.395614
v -1.055872 -0.2494674 1.474033
v -1.096372 0.1848602 0.791572
v -1.082147 -0.0464269 0.8957067
v -1.096182 0.3411857 0.6934029
v -1.093062 0.3381883 0.6922115
v -1.091295 0.1954452 1.025965
v -1.093062 0.3381883 0.6922115
v -1.101152 0.2211295 0.9669456
v -1.091295 0.1954452 1.025965
v -1.101152 0.2211295 0.9669456
v -1.093062 0.3381883 0.6922115
v -1.055872 -0.2494674 1.474033
v -1.093062 0.3381883 0.6922115
v -1.082147 -0.0464269 0.8957067
v -1.055872 -0.2494674 1.474033

vn -0.04836912 -0.1379272 -0.6601082
vn 0.06924351 0.2132682 0.6424451
vn 0.06924351 0.2132682 0.6424451
vn 0.06924351 0.2132682 0.6424451
vn 0.06373269 0.192871 0.6568109
vn 0.06924351 0.2132682 0.6424451
vn -0.06952985 -0.1406796 -0.6985388
vn -0.07296754 -0.1589728 -0.6827835
vn -0.07296754 -0.1589728 -0.6827835
vn -0.07433612 -0.1666761 -0.6746458
vn -0.08427531 -0.2075964 -0.4202833
vn -0.08397596 -0.237281 -0.3970484
vn -0.08397596 -0.237281 -0.3970484
vn -0.08373194 -0.2476096 -0.3880202
vn -0.06841359 -0.2842557 -0.5540093
vn -0.07933727 -0.315791 -0.4467163
vn -0.07933727 -0.315791 -0.4467163
vn -0.08004353 -0.3083652 -0.3060285
vn 0.07155821 0.3347676 0.4578803
vn -0.06422129 -0.3486553 -0.42955
vn -0.06422129 -0.3486553 -0.42955
vn -0.06422129 -0.3486553 -0.42955
vn -0.06710296 -0.3443398 -0.4411169
vn -0.06422129 -0.3486553 -0.42955
vn 0.07865607 0.2847348 0.5280659
vn 0.07865607 0.2847348 0.5280659
vn 0.07865607 0.2847348 0.5280659
vn 0.07934105 0.2688715 0.2604195
vn 0.07934105 0.2688715 0.2604195
vn 0.07934105 0.2688715 0.2604195

vt -0.3165813 0.1791599
vt -0.496432 0.1173688
vt 0.2816502 1.164872
vt -0.496432 0.1173688
vt 0.7542656 1.237354
vt 0.2816502 1.164872
vt 0.1194409 -0.3155918
vt 0.04686599 -0.3221421
vt 0.78509 0.6265556
vt 0.1960958 0.06685784
vt 0.7535478 -0.3206063
vt 0.32934 0.07389989
vt 0.7571205 0.09623432
vt 0.255535 1.217528
vt 0.3181143 0.915263
vt 0.7870014 1.042316
vt 0.1107057 -0.3021301
vt 0.7133256 0.1720085
vt 0 -0.7816567
vt -0.07285119 -0.7833085
vt 0.09907069 -0.2108919
vt -0.07285119 -0.7833085
vt 0.26627 -0.2999077
vt 0.09907069 -0.2108919
vt 0.1028133 -0.2439531
vt -0.3553512 -0.6168469
vt -0.7388778 1.211226
vt -0.9208397 -0.2480745
vt -0.9944258 0.9031489
vt -0.3207965 1.520793

g pb_Mesh-179192
usemtl Default_Prototype
f 93/93/93 92/92/92 91/91/91
f 96/96/96 95/95/95 94/94/94
f 99/99/99 98/98/98 97/97/97
f 99/99/99 100/100/100 98/98/98
f 103/103/103 102/102/102 101/101/101
f 103/103/103 104/104/104 102/102/102
f 107/107/107 106/106/106 105/105/105
f 107/107/107 108/108/108 106/106/106
f 111/111/111 110/110/110 109/109/109
f 114/114/114 113/113/113 112/112/112
f 117/117/117 116/116/116 115/115/115
f 120/120/120 119/119/119 118/118/118

